<?xml version="1.0" encoding="utf-8"?>
<!-- Generator: Adobe Illustrator 25.0.1, SVG Export Plug-In . SVG Version: 6.00 Build 0)  -->
<svg version="1.0" id="Layer_1" xmlns="http://www.w3.org/2000/svg" xmlns:xlink="http://www.w3.org/1999/xlink" x="0px" y="0px"
	 viewBox="0 0 869.5 559.5" style="enable-background:new 0 0 869.5 559.5;" xml:space="preserve">
<style type="text/css">
	.st0{fill:#00B897;}
	.st1{fill:#76FCB2;}
	.st2{fill:url(#SVGID_1_);}
	.st3{fill:none;}
</style>
<path class="st0" d="M211.7,297.7l-30.8-53.4c-6.8-11.1-23.2-11.3-29.7,0.5l-32.4,55.6c-6,10.2,1.4,23,13.5,23h64.8
	C209.3,323.4,218.4,310.2,211.7,297.7z"/>
<path class="st1" d="M167.2,301.9l-1.9-3.3c-1.8-3.1-5.7-9.7-5.7-9.7l-26.1-45.3c-5.2-7.9-15.8-10-23.7-4.8
	c-2.5,1.6-4.5,3.9-5.8,6.6l-30.3,52.5c-4.7,8.1-1.9,18.5,6.3,23.2c2.6,1.5,5.5,2.3,8.5,2.3h108.3
	C180.1,323.5,174.8,314.8,167.2,301.9z"/>
<linearGradient id="SVGID_1_" gradientUnits="userSpaceOnUse" x1="123.8478" y1="416.516" x2="198.7178" y2="444.176" gradientTransform="matrix(1 0 0 1 -13.78 -134.73)">
	<stop  offset="0" style="stop-color:#53E57A;stop-opacity:0"/>
	<stop  offset="1" style="stop-color:#00A977"/>
</linearGradient>
<path class="st2" d="M167.2,301.9l-1.9-3.3c-1.8-3.1-5.7-9.7-5.7-9.7l-16.8-29.6l-24.2,41.2c-6,10.2,1.4,23,13.5,23h64.7
	C180,323.4,174.8,314.8,167.2,301.9z"/>
<path class="st0" d="M792.9,319.2c-3.7,0.1-7.3-0.8-10.4-2.6c-2.7-1.7-4.3-4.7-4.1-7.9V257h6.9c2.5,0,4.6,2.1,4.6,4.6v45.5
	c0.1,1.5,0.7,2.9,1.8,4c1.1,1.1,2.6,1.7,4.1,1.7h1.3c0.5,0,1,0.4,1,1v5.6L792.9,319.2z"/>
<path class="st0" d="M644.8,319.2c-7.1,0-12.9-1.9-17.3-5.7c-2.1-1.7-3.7-3.9-4.7-6.4c-1-2.4-1.4-5.8-1.4-10.4s0.5-8.1,1.4-10.4
	c1-2.4,2.6-4.5,4.6-6.2c4.4-3.8,10.2-5.7,17.3-5.7s12.9,1.9,17.3,5.7c2,1.6,3.6,3.8,4.6,6.2c1.1,3.4,1.6,6.9,1.4,10.5
	c0,4.6-0.5,8.1-1.4,10.4c-1,2.5-2.6,4.7-4.7,6.4C657.8,317.3,651.9,319.2,644.8,319.2z M644.8,281c-7.8,0-11.7,5.3-11.7,15.9
	s3.9,16,11.7,16s11.7-5.3,11.7-15.9S652.5,281,644.8,281z"/>
<path class="st0" d="M693.9,319.2c-5.9,0.1-11.7-1.6-16.7-4.9c-0.8-0.7-1.7-1.3-2.6-1.8c-0.3-0.2-0.5-0.5-0.5-0.8V257h7
	c2.5,0,4.6,2.1,4.6,4.6v16l2.1-1.2c2.5-1.3,5.8-1.9,10.1-1.9c7.5,0,13.2,2.3,16.9,6.6c3.3,3.9,5,9.1,5,15.5s-1.9,11.6-5.7,15.4
	C709.8,316.9,702.9,319.2,693.9,319.2z M695,281c-2.6,0-5.6,1-8.9,3l-0.5,0.2v25.7l0.5,0.4c2.7,1.7,5.7,2.5,8.9,2.5
	c4,0.1,7.8-1.9,9.8-5.3c2-3.2,3.1-6.9,3-10.7C707.8,286.3,703.5,281,695,281z"/>
<path class="st0" d="M747.2,319.1c-13,0-21.2-8.5-21.2-22.4s8-22.3,21-22.3c4.5-0.1,9,1.2,12.7,3.8l0.7,0.5v-3.4h9.1
	c0.5,0,0.9,0.4,0.9,0.9c0,0,0,0,0,0v42.1h-10.2v-3.8l-0.7,0.6C756.7,317.7,752.2,319.1,747.2,319.1z M749.5,282
	c-8.2,0-13,6.3-13,14.7s4.9,14.9,13,14.9c2.6,0,7.1-0.2,10.7-3.8l0.1-0.1v-21.6l-0.1-0.1C757.8,283.2,754.1,282,749.5,282L749.5,282
	z"/>
<path d="M326.3,318.7v-61.7h51.3v3.9c0,3.1-2.5,5.6-5.6,5.6l0,0H339V283H372v9.5H339v16.6H372c3.1,0,5.6,2.5,5.6,5.6l0,0v3.9
	L326.3,318.7z"/>
<path d="M451.2,256.9h-12.1c-2.2,0-4.3,1-5.7,2.7L418.9,278l-14.6-18.3c-1.4-1.7-3.5-2.7-5.7-2.7h-12.1l24.5,30.8l-24.5,30.8h12.1
	c2.2,0,4.3-1,5.7-2.7l14.6-18.2l14.7,18.4c1.4,1.7,3.5,2.7,5.7,2.7h12.1L426.8,288L451.2,256.9z"/>
<path d="M286.1,312.1l16.8-29.4v35.8h12.8v-61.7h-7.9c-2.5,0-4.8,1.3-6,3.5l-20.1,36.7l-20.1-36.7c-1.2-2.2-3.5-3.6-6-3.5h-8v61.7
	h12.8v-35.8l16.8,29.4L286.1,312.1z"/>
<path d="M484.6,319.4c-17.5,0.4-32-13.5-32.3-31c0-0.2,0-0.3,0-0.5c0-9.7,3-17.8,8.5-23.3s13.6-8.4,23.2-8.4
	c11.3,0,20.1,3.9,26.5,11.5l-4,3.4c-2.5,2.1-6.2,2.2-8.9,0.2c-3.8-2.8-8.4-4.2-13.1-4c-12.6,0-20,7.6-20,20.4s7.7,20.9,20,20.9
	c4.7,0.1,9.3-1.3,13.1-4c2.7-2,6.3-1.9,8.9,0.2l4,3.4C504.2,315.6,495.6,319.4,484.6,319.4z"/>
<path class="st0" d="M563.4,319.3c-19.9,0-32.2-12.1-32.2-31.5s12.3-31.5,32-31.5c9.5,0,17.4,2.7,23.6,8.3l-3,3.3
	c-2.1,2.3-5.4,2.9-8.2,1.5c-3.9-1.9-8.1-2.9-12.4-2.9c-12.8,0-20.7,8.2-20.7,21.3s8.3,21.4,21.6,21.4c6.4,0,11.4-1.2,15-3.8l0.2-0.1
	v-12.7h-14.1v-4.1c0-3.1,2.5-5.6,5.6-5.6l0,0h17.4c0.5,0,1,0.4,1,1v27.4C583.1,316.6,574.4,319.3,563.4,319.3z"/>
<path class="st0" d="M612,319.2c-3.7,0.1-7.3-0.8-10.4-2.6c-2.7-1.7-4.3-4.7-4.2-7.9V257h6.9c2.6,0,4.6,2.1,4.6,4.6v45.5
	c0.1,1.5,0.7,2.9,1.8,4c1.1,1.1,2.6,1.7,4.1,1.7h1.3c0.5,0,1,0.4,1,1v5.6L612,319.2z"/>
<rect x="48.5" y="216.5" class="st3" width="772.5" height="126.5"/>
</svg>
